<svg xmlns="http://www.w3.org/2000/svg" xmlns:xlink="http://www.w3.org/1999/xlink" viewBox="0 0 79.89317 61.04763"><defs><linearGradient id="linear-gradient" x1="31.48242" y1="38.99309" x2="71.00389" y2="-0.52838" gradientUnits="userSpaceOnUse"><stop offset="0" stop-color="#5147dd"/><stop offset="1" stop-color="#dd80dd"/></linearGradient></defs><g id="Layer_2" data-name="Layer 2"><g id="Layer_1-2" data-name="Layer 1"><path d="M79.89317,23.36207V21.101A21.09655,21.09655,0,0,0,58.7924,0H21.101A21.12486,21.12486,0,0,0,0,21.101V39.94658A21.12487,21.12487,0,0,0,21.101,61.04763H58.7866a21.10738,21.10738,0,0,0,21.10657-21.101v-2.261H47.10281v2.261A16.51211,16.51211,0,0,1,39.939,53.587a16.77677,16.77677,0,0,1-2.299-1.91574l-.00055-.00111a16.45513,16.45513,0,0,1-4.83255-10.85468,15.59492,15.59492,0,0,0,.00055-20.5827A16.57939,16.57939,0,0,1,39.9393,7.46038a16.527,16.527,0,0,1,7.169,13.64066v2.261ZM45.44541,54.86845A20.93777,20.93777,0,0,0,51.5059,42.20761H75.21932a16.59363,16.59363,0,0,1-16.43272,14.318H43.58128A21.1272,21.1272,0,0,0,45.44541,54.86845ZM29.52375,23.361a11.03932,11.03932,0,0,1,.00317,14.32184H4.52205V23.361Zm4.91849,31.50749q.47016.47011.97171.91192c-.12524.03864-.25013.07839-.3763.114q-.21321.06045-.42791.11523c-.22832.058-.45762.1122-.68839.16036-.14807.03091-.29719.05768-.44626.08446-.22118.03988-.44257.0788-.66548.10985-.19238.02635-.38637.04512-.58027.06486-.18178.01877-.363.041-.54559.05382-.38426.02622-.77056.04264-1.15994.04264H21.101A16.601,16.601,0,0,1,4.67989,42.20485H28.38471A20.93573,20.93573,0,0,0,34.44224,54.86845ZM28.384,18.83892H4.68037A16.601,16.601,0,0,1,21.101,4.52205h9.42277c.38875,0,.77444.01642,1.158.0425.18785.01311.3744.03588.56142.05548.18731.019.37485.03712.56077.06251.2316.03216.46172.07245.6915.11441.13745.02484.275.04926.41159.07769.2436.05065.48573.10792.72668.16961q.18822.048.37526.10088c.13473.03781.26793.08059.40162.12185A21.09146,21.09146,0,0,0,28.384,18.83892ZM45.446,6.17917a21.17937,21.17937,0,0,0-1.86358-1.65712h15.21A16.57972,16.57972,0,0,1,75.21932,18.84H51.51142A20.91892,20.91892,0,0,0,45.446,6.17917Z" fill="url(#linear-gradient)"/></g></g></svg>